<svg width="175" height="191" viewBox="0 0 175 191" fill="none" xmlns="http://www.w3.org/2000/svg">
<g clip-path="url(#clip0)">
<path d="M93.6875 20.0596C99.7959 36.3925 119.787 33.9347 133.352 30.4461C136.605 29.5739 139.936 28.6225 142.872 26.9575C145.807 25.2925 148.266 22.5968 149.218 19.346C150.249 15.6989 149.059 11.6553 146.997 8.48384C145.093 5.55026 142.316 2.45811 139.381 0.555243C138.112 3.80597 133.59 4.04383 130.496 4.04383C126.133 4.04383 122.167 2.37882 118.121 1.18953C113.996 0.000240684 109.553 -0.237617 105.428 0.872387C97.0987 2.85454 90.435 11.3381 93.6875 20.0596Z" fill="black"/>
<path d="M106.142 129.395C105.904 129.395 105.825 129.395 105.667 129.474L106.142 129.395Z" fill="black"/>
<path d="M106.142 129.395C105.904 129.395 105.825 129.395 105.667 129.474L106.142 129.395Z" fill="black"/>
<path d="M88.5312 49.8708V34.5686C88.5312 21.5657 100.669 10.9414 115.503 10.9414C122.881 10.9414 129.624 13.5578 134.542 17.8393C139.461 22.1207 142.475 27.9879 142.475 34.4894V49.7916" stroke="black" stroke-width="2" stroke-miterlimit="10"/>
<path d="M142.475 66.4419V84.1227C142.475 97.1256 130.338 107.75 115.503 107.75C100.669 107.75 88.5312 97.1256 88.5312 84.1227V66.4419" stroke="black" stroke-width="2" stroke-miterlimit="10"/>
<path d="M99.4788 71.9125C107.058 71.9125 113.203 65.7714 113.203 58.196C113.203 50.6206 107.058 44.4795 99.4788 44.4795C91.8993 44.4795 85.7549 50.6206 85.7549 58.196C85.7549 65.7714 91.8993 71.9125 99.4788 71.9125Z" stroke="black" stroke-width="2" stroke-miterlimit="10"/>
<path d="M131.449 71.9125C139.028 71.9125 145.172 65.7714 145.172 58.196C145.172 50.6206 139.028 44.4795 131.449 44.4795C123.869 44.4795 117.725 50.6206 117.725 58.196C117.725 65.7714 123.869 71.9125 131.449 71.9125Z" stroke="black" stroke-width="2" stroke-miterlimit="10"/>
<path d="M113.124 57.7993H117.883" stroke="black" stroke-width="4" stroke-miterlimit="10"/>
<path d="M126.53 105.609H126.609V130.425" stroke="black" stroke-width="2" stroke-miterlimit="10"/>
<path d="M106.777 130.108V106.243" stroke="black" stroke-width="2" stroke-miterlimit="10"/>
<path d="M99.4788 61.3673C101.231 61.3673 102.652 59.9474 102.652 58.1959C102.652 56.4443 101.231 55.0244 99.4788 55.0244C97.7263 55.0244 96.3057 56.4443 96.3057 58.1959C96.3057 59.9474 97.7263 61.3673 99.4788 61.3673Z" fill="black"/>
<path d="M131.449 61.3673C133.201 61.3673 134.622 59.9474 134.622 58.1959C134.622 56.4443 133.201 55.0244 131.449 55.0244C129.696 55.0244 128.275 56.4443 128.275 58.1959C128.275 59.9474 129.696 61.3673 131.449 61.3673Z" fill="black"/>
<path d="M86.7068 63.3496H85.1203C83.375 63.3496 81.7884 64.0632 80.5985 65.1732C79.4879 66.3625 78.7739 67.9482 78.7739 69.6925C78.7739 73.1811 81.6298 76.0354 85.1203 76.0354H88.2934" stroke="black" stroke-width="2" stroke-miterlimit="10"/>
<path d="M144.22 63.3496H145.807C149.297 63.3496 152.153 66.2039 152.153 69.6925C152.153 71.4368 151.439 73.0225 150.249 74.2118C149.139 75.3218 147.552 76.0354 145.807 76.0354H142.634" stroke="black" stroke-width="2" stroke-miterlimit="10"/>
<path d="M88.3726 67.7896V71.5953H85.8341C84.8028 71.5953 83.9302 70.7231 83.9302 69.6924C83.9302 69.1374 84.1682 68.6617 84.4855 68.3446C84.8028 68.0274 85.2788 67.7896 85.8341 67.7896H88.3726V67.7896Z" fill="black"/>
<path d="M142.634 71.5953V67.7896H145.172C146.204 67.7896 147.076 68.6617 147.076 69.6924C147.076 70.2474 146.838 70.7231 146.521 71.0403C146.204 71.3574 145.728 71.5953 145.172 71.5953H142.634V71.5953Z" fill="black"/>
<path d="M115.503 71.2783C115.503 71.2783 111.537 77.6212 117.883 76.0355" stroke="black" stroke-width="2" stroke-miterlimit="10" stroke-linecap="round"/>
<path d="M108.364 89.5933C108.364 89.5933 114.71 97.4426 123.436 89.5933" stroke="black" stroke-width="2" stroke-miterlimit="10" stroke-linecap="round"/>
<path d="M93.291 41.9423C93.291 41.9423 97.6541 37.5816 105.19 41.1495" stroke="black" stroke-width="3" stroke-miterlimit="10" stroke-linecap="round"/>
<path d="M137.715 41.9423C137.715 41.9423 133.352 37.5816 125.816 41.1495" stroke="black" stroke-width="3" stroke-miterlimit="10" stroke-linecap="round"/>
<path d="M88.3726 32.9039C88.3726 32.9039 77.4251 24.4203 82.1849 14.1131C86.9446 3.80594 102.017 9.35596 102.017 9.35596C102.017 9.35596 108.046 35.0446 88.3726 32.9039Z" fill="black"/>
<path d="M33.9529 96.2541C33.001 93.1619 31.6524 91.6555 30.9384 87.1362C29.4312 78.0976 29.9865 69.4554 26.258 69.7725C24.7508 69.9311 24.2748 71.5168 24.3541 72.389L25.5441 86.6604C25.0681 88.3255 24.1955 87.6912 24.1955 87.6912C24.1955 87.6912 21.1016 75.0054 20.705 72.7061C20.3083 70.4861 19.1977 69.2175 17.6905 69.3761C15.0726 69.6139 16.1039 72.7854 16.3419 73.9747L19.1184 89.3562C19.3564 90.8626 17.7698 90.3869 17.7698 90.3869L11.5821 75.0054C10.8682 73.3404 9.51958 73.7368 9.51958 73.7368C7.06038 74.2918 8.01233 76.5118 8.01233 76.5118L13.3274 92.8448C13.3274 92.924 13.3274 93.0033 13.3274 93.0826C13.4067 93.9548 12.2961 94.4305 11.8201 93.6376C10.1542 91.1005 6.90172 87.0569 4.20453 85.4712C2.85594 84.6783 1.90399 84.8369 1.34868 85.2333C0.79338 85.6297 0.714051 86.3433 1.1107 86.8983L11.0268 101.249C13.3274 116.472 22.6089 118.296 22.6089 118.296L28.1619 140.02L36.3328 174.271L37.3641 178.632C38.316 182.834 42.1238 185.847 46.4076 185.847H50.7707C53.8645 185.847 56.0064 182.834 55.0545 179.98L35.3015 119.881L34.4289 114.648C36.3328 112.508 37.6021 107.988 38.2367 104.738C38.6334 102.993 38.792 101.17 38.6334 99.4255C38.316 95.0648 41.2512 87.2154 41.2512 87.2154C41.0132 85.709 38.1574 86.9776 38.1574 86.9776C34.9842 88.0876 34.1909 93.1619 33.9529 95.9369C33.8736 97.1262 33.3183 98.1569 32.525 98.9498C27.7653 103.628 27.3686 108.861 27.3686 108.861" stroke="black" stroke-width="2" stroke-miterlimit="10"/>
<path d="M20.6257 72.7847C20.229 70.5647 19.515 68.8997 17.6111 69.4547C15.0726 70.1683 16.0246 72.864 16.2626 74.0533" stroke="black" stroke-width="2" stroke-miterlimit="10"/>
<path d="M175 190.207V191H157.706L154.057 170.782V191H79.1703V179.503C79.1703 176.728 79.1703 173.953 79.2497 171.178C77.5837 172.526 75.7592 173.636 73.6173 174.825L57.0375 185.925C56.9582 186.005 56.8788 186.005 56.7995 186.084C56.0856 186.48 55.2923 186.718 54.4196 186.718L50.9718 186.849C50.9718 186.849 54.6576 185.45 55.5302 181.961L49.5806 162.14C58.0688 155.083 71.7927 134.707 98.13 130.505C99.2406 130.267 100.431 130.029 101.7 129.87C102.89 129.712 104.08 129.553 105.428 129.474L106.301 129.395V129.553L105.825 129.632C105.984 129.632 106.063 129.632 106.222 129.553H106.301C106.46 129.553 106.618 129.553 106.777 129.474H106.856L107.649 129.395V132.407C107.649 132.804 107.808 133.28 108.205 133.676C109.395 135.024 112.092 136.055 115.344 136.292C115.9 136.372 116.455 136.372 117.01 136.372C117.09 136.372 117.169 136.372 117.169 136.372H117.248C120.421 136.292 123.357 135.42 124.864 134.152C125.34 133.755 125.816 133.2 125.816 132.407V129.632L126.609 129.791H126.768C127.006 129.791 127.164 129.87 127.402 129.87V129.632L128.434 129.791C157.547 133.359 175 155.955 175 190.207Z" fill="black"/>
<path d="M56.9582 185.846L56.7202 186.005C56.7995 186.005 56.8789 185.925 56.9582 185.846Z" fill="black"/>
</g>
<defs>
<clipPath id="clip0">
<rect width="175" height="191" fill="white"/>
</clipPath>
</defs>
</svg>
